<?xml version="1.0" standalone="no"?>
<!DOCTYPE svg PUBLIC "-//W3C//DTD SVG 20010904//EN"
 "http://www.w3.org/TR/2001/REC-SVG-20010904/DTD/svg10.dtd">
<svg version="1.0" xmlns="http://www.w3.org/2000/svg"
 viewBox="0 0 1291.000000 483.000000"
 preserveAspectRatio="xMidYMid meet">

<g transform="translate(0.000000,483.000000) scale(0.100000,-0.100000)"
fill="#155dfc" stroke="none">
<path d="M1828 4001 c-94 -10 -104 -26 -177 -281 -30 -104 -187 -701 -276
-1045 -107 -414 -130 -501 -191 -715 -129 -452 -221 -847 -210 -902 10 -52 48
-118 89 -155 l40 -35 86 4 c69 4 97 10 140 32 71 37 142 104 192 184 93 147
303 870 488 1682 34 146 67 290 74 320 7 30 17 55 22 55 6 0 13 -72 17 -165
30 -723 93 -1280 169 -1487 30 -80 122 -171 223 -219 69 -33 77 -35 117 -24
135 36 322 263 427 515 169 407 335 887 501 1446 91 307 103 367 80 426 -27
74 -94 139 -155 153 l-34 8 -50 -105 c-41 -87 -53 -124 -65 -209 -67 -447
-280 -1166 -445 -1494 -15 -30 -55 -129 -90 -220 -83 -219 -143 -345 -169
-359 -18 -10 -25 -8 -46 15 -30 33 -26 18 -74 264 -74 385 -100 555 -116 770
-48 655 -108 1191 -150 1350 -34 132 -210 213 -417 191z"/>
<path d="M11231 3980 c-10 -6 -10 -22 -1 -82 16 -100 6 -147 -125 -574 -195
-636 -363 -1244 -411 -1489 -25 -124 -23 -307 4 -396 46 -152 118 -251 217
-299 142 -68 456 -13 690 121 163 93 253 230 340 519 70 234 70 240 -6 482
l-63 203 -61 60 c-92 91 -224 152 -367 169 -32 4 -58 9 -58 12 0 2 34 102 76
222 83 238 182 571 191 642 3 31 -2 72 -17 128 -37 136 -94 184 -311 260 -48
17 -91 27 -98 22z m338 -1547 c47 -59 56 -120 56 -388 0 -248 0 -251 -28 -330
-53 -151 -111 -220 -241 -285 -132 -67 -208 -52 -235 46 -14 52 -14 89 4 257
27 245 84 477 150 607 44 85 101 119 207 120 60 0 68 -2 87 -27z"/>
<path d="M8658 3963 c-16 -2 -28 -7 -28 -10 0 -3 22 -25 48 -48 55 -50 93
-125 113 -222 11 -51 11 -82 0 -165 -20 -165 -62 -410 -117 -686 -13 -68 -24
-125 -24 -127 0 -2 -17 -1 -37 1 -171 18 -353 40 -546 66 l-228 31 5 26 c21
98 46 388 46 521 0 181 -28 379 -57 413 -99 115 -245 166 -432 153 -52 -4 -97
-8 -99 -10 -2 -2 19 -26 46 -54 61 -60 86 -108 108 -203 19 -85 14 -148 -38
-454 -55 -324 -52 -310 -71 -313 -23 -5 -180 20 -389 60 -92 18 -170 30 -172
27 -5 -5 6 -88 20 -153 l6 -29 -36 21 c-34 20 -51 22 -187 22 -142 0 -152 -1
-202 -26 -215 -108 -337 -253 -417 -494 -75 -224 -8 -392 194 -490 194 -94
344 -94 519 -3 122 64 317 224 317 260 -1 43 -15 43 -81 -1 -177 -119 -322
-178 -439 -179 -92 -1 -130 14 -192 78 -42 43 -48 53 -48 92 0 28 4 43 13 43
24 0 236 109 313 161 159 106 276 255 291 371 l6 38 56 -62 c64 -71 165 -140
274 -188 l76 -33 -5 -66 c-18 -222 -72 -585 -144 -966 -11 -60 -27 -144 -35
-185 -8 -41 -23 -118 -35 -170 -36 -163 -51 -250 -45 -259 3 -5 19 -12 35 -16
102 -22 223 103 331 345 120 267 299 827 359 1120 12 58 23 106 24 107 2 2 52
-4 112 -12 181 -26 340 -43 514 -56 91 -6 166 -13 168 -14 3 -3 0 -20 -98
-495 -115 -555 -126 -645 -84 -691 39 -43 119 -4 228 111 143 152 247 350 356
679 49 147 63 201 99 367 18 85 23 95 68 140 83 84 123 249 103 428 -13 112
-19 138 -32 130 -7 -5 -9 8 -4 37 42 291 50 546 23 727 -9 62 -24 126 -32 141
-33 64 -137 130 -247 156 -58 14 -205 18 -270 8z m-1992 -1327 c10 -41 -24
-97 -106 -178 -63 -60 -100 -87 -173 -122 -50 -25 -104 -48 -119 -52 -27 -6
-28 -5 -28 33 0 95 92 204 235 275 144 73 181 82 191 44z"/>
<path d="M5198 3778 c-15 -11 -16 -19 -7 -58 12 -53 7 -84 -31 -200 -31 -95
-42 -122 -110 -277 l-23 -51 -76 5 c-96 6 -324 46 -510 89 -107 25 -148 31
-162 23 -19 -10 -18 -12 11 -49 36 -45 145 -128 245 -187 70 -41 340 -153 369
-153 27 0 27 -18 -3 -92 -45 -114 -111 -322 -138 -438 -21 -87 -26 -138 -30
-305 -4 -179 -3 -210 16 -293 25 -108 98 -272 159 -354 45 -61 141 -151 186
-175 73 -38 139 -53 238 -53 93 0 106 3 221 46 152 58 251 109 294 152 45 44
44 76 -3 140 -1 2 -33 -19 -70 -47 -141 -102 -297 -162 -429 -163 -117 -1
-164 28 -211 127 -21 43 -24 65 -24 160 0 252 84 509 346 1052 l63 131 143 0
c230 1 486 59 639 144 107 61 166 129 208 241 34 91 26 93 -144 34 -56 -20
-150 -42 -214 -52 -122 -18 -492 -37 -502 -27 -3 4 -1 73 4 154 l9 147 -38 68
c-46 84 -118 157 -215 220 -64 41 -83 48 -134 51 -40 2 -66 -1 -77 -10z"/>
<path d="M9496 2989 c-86 -68 -161 -392 -173 -744 -4 -136 -2 -184 11 -238 48
-203 166 -319 323 -319 144 0 269 84 471 317 35 41 42 45 38 25 -3 -14 -9 -70
-12 -125 -10 -153 16 -248 88 -331 64 -72 119 -96 229 -95 56 0 159 17 159 26
0 2 -14 18 -32 36 -43 47 -79 129 -85 197 -9 94 35 472 92 792 19 108 20 269
1 314 -7 18 -26 43 -42 55 -24 19 -38 22 -81 19 -28 -3 -59 -11 -68 -18 -24
-20 -87 -158 -140 -310 -107 -305 -184 -419 -377 -558 -46 -33 -116 -76 -155
-96 -88 -44 -84 -67 -43 219 67 483 46 753 -66 829 -48 32 -101 34 -138 5z"/>
<path d="M4395 2898 c-103 -28 -121 -29 -290 -28 -99 0 -211 -5 -248 -12 -68
-11 -68 -12 -151 -99 -96 -100 -126 -150 -166 -269 -106 -315 -96 -600 23
-736 54 -61 87 -74 194 -74 188 1 353 65 477 186 74 72 110 147 177 363 28 91
31 114 27 190 -4 74 -11 102 -52 204 -27 65 -46 121 -42 124 3 4 37 16 76 29
38 12 90 34 115 49 43 25 46 29 43 63 -3 35 -5 37 -38 38 -19 1 -84 -12 -145
-28z m-276 -224 c34 -44 43 -100 44 -284 1 -165 0 -179 -26 -257 -65 -195
-204 -307 -304 -244 l-33 21 0 184 c0 204 10 279 59 419 48 141 94 186 193
187 39 0 50 -4 67 -26z"/>
</g>
</svg>
